<?xml version="1.0" encoding="UTF-8" standalone="no"?>
<svg width="59px" height="20px" viewBox="0 0 59 20" version="1.1" xmlns="http://www.w3.org/2000/svg" xmlns:xlink="http://www.w3.org/1999/xlink">
    <!-- Generator: Sketch 49.3 (51167) - http://www.bohemiancoding.com/sketch -->
    <title>Group 25</title>
    <desc>Created with Sketch.</desc>
    <defs></defs>
    <g id="Page-1" stroke="none" stroke-width="1" fill="none" fill-rule="evenodd">
        <g id="Artboard" transform="translate(-200.000000, -140.000000)">
            <g id="Group-2" transform="translate(170.000000, 40.000000)">
                <g id="Group-29" transform="translate(0.000000, 63.000000)">
                    <g id="Group-3" transform="translate(30.000000, 30.000000)">
                        <g id="Group-25" transform="translate(0.000000, 7.000000)">
                            <polyline id="Fill-3" fill="#FFFFFE" points="20.6144578 19.2592593 23.6236498 -5.68434189e-14 28.4337349 -5.68434189e-14 25.4248181 19.2592593 20.6144578 19.2592593"></polyline>
                            <path d="M42.6506024,0.812922056 C41.7137953,0.424058601 40.2404311,-5.68434189e-14 38.4050262,-5.68434189e-14 C33.7207198,-5.68434189e-14 30.4233322,2.62933501 30.3959624,6.39435733 C30.3661536,9.17935218 32.7489551,10.7325169 34.5453376,11.6581779 C36.391582,12.6070161 37.0118746,13.214204 37.0045579,14.0626073 C36.9918214,15.3602495 35.5309227,15.9548472 34.1686637,15.9548472 C32.2717445,15.9548472 31.2639384,15.6621266 29.7057548,14.9387662 L29.0963017,14.6303079 L28.4337349,18.9673229 C29.5385549,19.5069818 31.5866856,19.975392 33.7123191,20 C38.6906481,20 41.9254373,17.4024265 41.9633757,13.3818817 C41.980448,11.1734577 40.7179127,9.49954218 37.9836392,8.11748884 C36.3278997,7.2190111 35.311693,6.62384114 35.3233455,5.7144901 C35.3244294,4.90929381 36.1818369,4.04715577 38.0375659,4.04715577 C39.5873489,4.02083095 40.7092411,4.39796269 41.5834499,4.79169051 L42.0089017,5.01316241 L42.6506024,0.812922056" id="Fill-4" fill="#FFFFFE"></path>
                            <path d="M49.2949179,12.4197005 C49.6886095,11.3119829 51.1873003,7.03281161 51.1873003,7.03281161 C51.159587,7.08375752 51.5788183,5.91655556 51.8187283,5.19420526 L52.139333,6.85635094 C52.139333,6.85635094 53.0508825,11.4562822 53.2386264,12.4197005 L49.2949179,12.4197005 L49.2949179,12.4197005 Z M55.1554616,-5.68434189e-14 L51.4842671,-5.68434189e-14 C50.3455773,-5.68434189e-14 49.4932581,0.340967556 48.994419,1.59753831 L41.939759,19.2592593 L46.9292363,19.2592593 C46.9292363,19.2592593 47.743246,16.8833017 47.9280012,16.3618889 C48.4722139,16.3618889 53.3204077,16.3718504 54.0124247,16.3718504 C54.1547948,17.0443932 54.5908715,19.2592593 54.5908715,19.2592593 L59,19.2592593 L55.1554616,-5.68434189e-14 L55.1554616,-5.68434189e-14 Z" id="Fill-5" fill="#FFFFFE"></path>
                            <path d="M16.4152348,-5.68434189e-14 L11.8801545,13.1527205 L11.394395,10.4790975 C10.5492848,7.39861894 7.91855137,4.05972432 4.97590361,2.38671561 L9.12486735,19.2592593 L14.0285736,19.2561252 L21.3253012,-5.68434189e-14 L16.4152348,-5.68434189e-14" id="Fill-6" fill="#FFFFFE"></path>
                            <path d="M7.61097724,-5.68434189e-14 L0.0621151272,-5.68434189e-14 L-1.70530257e-13,0.39509123 C5.87389558,1.97461134 9.76037483,5.78725578 11.373494,10.3703704 L9.7330656,1.60880698 C9.45006693,0.400441717 8.62757697,0.0422406874 7.61097724,-5.68434189e-14" id="Fill-7" fill="#EC982D"></path>
                        </g>
                    </g>
                </g>
            </g>
        </g>
    </g>
</svg>