<?xml version="1.0" encoding="UTF-8" standalone="no"?>
<svg width="43px" height="32px" viewBox="0 0 43 32" version="1.1" xmlns="http://www.w3.org/2000/svg" xmlns:xlink="http://www.w3.org/1999/xlink">
    <!-- Generator: Sketch 49.3 (51167) - http://www.bohemiancoding.com/sketch -->
    <title>Discover-dark</title>
    <desc>Created with Sketch.</desc>
    <defs>
        <rect id="path-1" x="0" y="0" width="42.9482957" height="32" rx="2.1334117"></rect>
        <path d="M12.9464506,32 L40.8146884,32 C41.9930472,32 42.9482957,31.0466405 42.9482957,29.8594965 L42.9482957,21.669417 C42.9482957,21.669417 32.3524224,28.8060013 12.9464506,32 Z" id="path-3"></path>
    </defs>
    <g id="Page-1" stroke="none" stroke-width="1" fill="none" fill-rule="evenodd">
        <g id="Artboard" transform="translate(-342.000000, -134.000000)">
            <g id="Group-2" transform="translate(170.000000, 40.000000)">
                <g id="Group-29" transform="translate(0.000000, 63.000000)">
                    <g id="Group-3" transform="translate(30.000000, 30.000000)">
                        <g id="Discover-dark" transform="translate(142.000000, 1.000000)">
                            <g id="Rectangle">
                                <mask id="mask-2" fill="white">
                                    <use xlink:href="#path-1"></use>
                                </mask>
                                <g id="Mask">
                                    <use fill="#FFFFFF" fill-rule="evenodd" xlink:href="#path-1"></use>
                                    <rect stroke="#E6772F" stroke-width="1.06670585" x="0.533352924" y="0.533352924" width="41.8815898" height="30.9332942" rx="2.1334117"></rect>
                                </g>
                                <mask id="mask-4" fill="white">
                                    <use xlink:href="#path-3"></use>
                                </mask>
                                <use id="Mask" fill="#E6772F" xlink:href="#path-3"></use>
                            </g>
                            <path d="M6.25016932,16.280398 C5.8889538,16.5732212 5.42912215,16.7012672 4.69379864,16.7012672 L4.3886767,16.7012672 L4.3886767,13.2068825 L4.69379864,13.2068825 C5.42912215,13.2068825 5.87131146,13.3263101 6.25016932,13.6337027 C6.6412411,13.9513554 6.87624606,14.4413777 6.87624606,14.9482266 C6.87624606,15.457538 6.6412411,15.9650025 6.25016932,16.280398 L6.25016932,16.280398 Z M4.92156572,12.3117915 L3.25210314,12.3117915 L3.25210314,17.5967687 L4.91138745,17.5967687 C5.79440898,17.5967687 6.4317949,17.4061361 6.99046887,16.985472 C7.65409212,16.4872416 8.0478781,15.7349711 8.0478781,14.9556139 C8.0478781,13.3954632 6.76315416,12.3117915 4.92156572,12.3117915 L4.92156572,12.3117915 Z" id="Fill-13" fill="#1A1919"></path>
                            <polygon id="Fill-14" fill="#1A1919" points="8.57194595 12.3117915 9.70399583 12.3117915 9.70399583 17.5967687 8.57194595 17.5967687"></polygon>
                            <path d="M12.4840208,14.3373403 C11.8007196,14.1099765 11.6009993,13.9585374 11.6009993,13.6728963 C11.6009993,13.3408794 11.9579173,13.0890966 12.4487362,13.0890966 C12.7889166,13.0890966 13.0691583,13.2126282 13.3677209,13.5144803 L13.9587392,12.8110479 C13.4704083,12.4211641 12.8859494,12.2237598 12.2487897,12.2237598 C11.217844,12.2237598 10.4320815,12.8744553 10.4320815,13.7348673 C10.4320815,14.4653864 10.7973683,14.8359812 11.8633725,15.1879026 C12.3089546,15.3284659 12.5353646,15.4245005 12.6500397,15.4895495 C12.8771283,15.6227256 12.9902202,15.8135634 12.9902202,16.0341556 C12.9902202,16.4640537 12.6147551,16.7800648 12.1071986,16.7800648 C11.5668456,16.7800648 11.1296323,16.5346432 10.8679376,16.0737596 L10.1355545,16.717273 C10.65917,17.4133182 11.28683,17.7244044 12.1515307,17.7244044 C13.3308529,17.7244044 14.1618522,17.0080442 14.1618522,15.9877799 C14.1618522,15.1470674 13.776435,14.7660073 12.4840208,14.3373403" id="Fill-15" fill="#1A1919"></path>
                            <path d="M14.5187702,14.9556139 C14.5187702,16.5098138 15.8634329,17.7141443 17.5944174,17.7141443 C18.0825221,17.7141443 18.5009621,17.6267282 19.0162088,17.4061361 L19.0162088,16.1915455 C18.5609008,16.6066691 18.161234,16.7704203 17.6441779,16.7704203 C16.5003664,16.7704203 15.6901761,16.0195862 15.6901761,14.9482266 C15.6901761,13.9359652 16.5266038,13.1340358 17.5944174,13.1340358 C18.1331872,13.1340358 18.5448417,13.3072263 19.0162088,13.728506 L19.0162088,12.5153518 C18.5183782,12.286962 18.1098903,12.1923639 17.6177144,12.1923639 C15.8966819,12.1923639 14.5187702,13.4202926 14.5187702,14.9556139" id="Fill-16" fill="#1A1919"></path>
                            <polyline id="Fill-17" fill="#1A1919" points="28.2200797 15.8599391 26.6666494 12.3117915 25.4280669 12.3117915 27.8975416 17.73015 28.5066545 17.73015 31.0240801 12.3117915 29.7952236 12.3117915 28.2200797 15.8599391"></polyline>
                            <polyline id="Fill-18" fill="#1A1919" points="31.539553 17.5967687 34.7610888 17.5967687 34.7610888 16.7012672 32.6761266 16.7012672 32.6761266 15.274703 34.6819244 15.274703 34.6819244 14.3794067 32.6761266 14.3794067 32.6761266 13.2068825 34.7610888 13.2068825 34.7610888 12.3117915 31.539553 12.3117915 31.539553 17.5967687"></polyline>
                            <path d="M36.9799518,14.7419986 L36.6501758,14.7419986 L36.6501758,13.1434751 L36.9984988,13.1434751 C37.7082636,13.1434751 38.0884785,13.4137262 38.0884785,13.9285779 C38.0884785,14.4575887 37.7082636,14.7419986 36.9799518,14.7419986 L36.9799518,14.7419986 Z M39.2583011,13.8711214 C39.2583011,12.8814322 38.5100851,12.3117915 37.1984453,12.3117915 L35.5111142,12.3117915 L35.5111142,17.5967687 L36.6501758,17.5967687 L36.6501758,15.4719021 L36.7978738,15.4719021 L38.3673632,17.5967687 L39.7649528,17.5967687 L37.9321855,15.3693011 C38.7887436,15.2104748 39.2583011,14.6798224 39.2583011,13.8711214 L39.2583011,13.8711214 Z" id="Fill-19" fill="#1A1919"></path>
                            <path d="M25.588205,14.967926 C25.588205,16.4894988 24.2292928,17.7227628 22.5514614,17.7227628 C20.8740824,17.7227628 19.514944,16.4894988 19.514944,14.967926 C19.514944,13.4461481 20.8740824,12.2126789 22.5514614,12.2126789 C24.2292928,12.2126789 25.588205,13.4461481 25.588205,14.967926" id="Fill-20" fill="#E6772F"></path>
                        </g>
                    </g>
                </g>
            </g>
        </g>
    </g>
</svg>