<?xml version="1.0" encoding="UTF-8" standalone="no"?>
<svg width="40px" height="33px" viewBox="0 0 40 33" version="1.1" xmlns="http://www.w3.org/2000/svg" xmlns:xlink="http://www.w3.org/1999/xlink">
    <!-- Generator: Sketch 49.3 (51167) - http://www.bohemiancoding.com/sketch -->
    <title>American_Express_logo</title>
    <desc>Created with Sketch.</desc>
    <defs>
        <radialGradient cx="17.5409177%" cy="17.466056%" fx="17.5409177%" fy="17.466056%" r="116.043728%" gradientTransform="translate(0.175409,0.174661),scale(0.803898,1.000000),translate(-0.175409,-0.174661)" id="radialGradient-1">
            <stop stop-color="#9DD5F6" offset="0%"></stop>
            <stop stop-color="#98D3F5" offset="7.11%"></stop>
            <stop stop-color="#89CEF3" offset="15.75%"></stop>
            <stop stop-color="#70C6EF" offset="25.16%"></stop>
            <stop stop-color="#4EBBEA" offset="35.14%"></stop>
            <stop stop-color="#23ADE3" offset="45.46%"></stop>
            <stop stop-color="#0DA6E0" offset="50%"></stop>
            <stop stop-color="#2E77BC" offset="100%"></stop>
        </radialGradient>
    </defs>
    <g id="Page-1" stroke="none" stroke-width="1" fill="none" fill-rule="evenodd">
        <g id="Artboard" transform="translate(-398.000000, -133.000000)" fill-rule="nonzero">
            <g id="Group-2" transform="translate(170.000000, 40.000000)">
                <g id="Group-29" transform="translate(0.000000, 63.000000)">
                    <g id="Group-3" transform="translate(30.000000, 30.000000)">
                        <g id="American_Express_logo" transform="translate(198.000000, 0.000000)">
                            <path d="M37.6609123,0.0842253521 L2.08968421,0.0842253521 C0.985114711,0.0842253521 0.0896842105,0.979655852 0.0896842105,2.08422535 L0.0896842105,30.0842254 C0.0896842105,31.1887949 0.985114711,32.0842254 2.08968421,32.0842254 L37.6609123,32.0842254 C38.7654818,32.0842254 39.6609123,31.1887949 39.6609123,30.0842254 L39.6609123,21.5234089 C39.8181053,21.3403197 39.8957193,21.1061149 39.8957193,20.8197766 C39.8957193,20.4920482 39.8181053,20.2890556 39.6609123,20.1180669 L39.6609123,2.08422535 C39.6609123,0.979655852 38.7654818,0.0842253521 37.6609123,0.0842253521 Z" id="Shape" fill="url(#radialGradient-1)"></path>
                            <g id="Group-27" transform="translate(0.000000, 9.000000)" fill="#FFFFFF">
                                <path d="M3.6565614,4.32985915 L2.89529825,2.46830986 L2.13838596,4.32985915 L3.6565614,4.32985915 Z M20.4270877,3.58859155 C20.2742456,3.68169014 20.0934737,3.68478873 19.8769123,3.68478873 L18.5257544,3.68478873 L18.5257544,2.64760563 L19.8952982,2.64760563 C20.0891228,2.64760563 20.2913684,2.65633803 20.4227368,2.73183099 C20.5670175,2.79985915 20.6562807,2.94464789 20.6562807,3.14464789 C20.6562807,3.34873239 20.5713684,3.51295775 20.4270877,3.58859155 Z M30.0661053,4.32985915 L29.2964211,2.46830986 L28.5309474,4.32985915 L30.0661053,4.32985915 Z M12.098386,6.34478873 L10.9581754,6.34478873 L10.9539649,2.68760563 L9.34119298,6.34478873 L8.36463158,6.34478873 L6.74764912,2.6843662 L6.74764912,6.34478873 L4.48547368,6.34478873 L4.05810526,5.30323944 L1.74231579,5.30323944 L1.31059649,6.34478873 L0.102596491,6.34478873 L2.09431579,1.67521127 L3.74680702,1.67521127 L5.63845614,6.09633803 L5.63845614,1.67521127 L7.45375439,1.67521127 L8.90933333,4.84295775 L10.2464561,1.67521127 L12.0982456,1.67521127 L12.0982456,6.34478873 L12.098386,6.34478873 Z M16.642807,6.34478873 L12.9272982,6.34478873 L12.9272982,1.67521127 L16.642807,1.67521127 L16.642807,2.64760563 L14.0395789,2.64760563 L14.0395789,3.48929577 L16.5803509,3.48929577 L16.5803509,4.44647887 L14.0395789,4.44647887 L14.0395789,5.37901408 L16.642807,5.37901408 L16.642807,6.34478873 Z M21.8815439,2.9328169 C21.8815439,3.67732394 21.386386,4.06197183 21.0978246,4.17746479 C21.341193,4.27042254 21.5490526,4.43464789 21.648,4.57070423 C21.8050526,4.80295775 21.8321404,5.01042254 21.8321404,5.42746479 L21.8321404,6.34478873 L20.7103158,6.34478873 L20.7061053,5.75591549 C20.7061053,5.47492958 20.7329123,5.07084507 20.5305263,4.84619718 C20.368,4.68197183 20.1202807,4.64633803 19.7198596,4.64633803 L18.5258947,4.64633803 L18.5258947,6.34478873 L17.4137544,6.34478873 L17.4137544,1.67521127 L19.9719298,1.67521127 C20.5403509,1.67521127 20.9591579,1.69028169 21.3187368,1.89887324 C21.6705965,2.10746479 21.8815439,2.41197183 21.8815439,2.9328169 Z M23.6614737,6.34478873 L22.5265965,6.34478873 L22.5265965,1.67521127 L23.6614737,1.67521127 L23.6614737,6.34478873 Z M36.8275088,6.34478873 L35.2513684,6.34478873 L33.1431579,2.84 L33.1431579,6.34478873 L30.8780351,6.34478873 L30.445193,5.30323944 L28.1347368,5.30323944 L27.714807,6.34478873 L26.4133333,6.34478873 C25.8727018,6.34478873 25.1882105,6.22478873 24.8005614,5.82830986 C24.4096842,5.43183099 24.2063158,4.89478873 24.2063158,4.0456338 C24.2063158,3.35309859 24.3278596,2.72 24.8058947,2.21971831 C25.1654737,1.84704225 25.7285614,1.67521127 26.4950175,1.67521127 L27.5717895,1.67521127 L27.5717895,2.67577465 L26.517614,2.67577465 C26.1117193,2.67577465 25.8825263,2.73633803 25.6617544,2.95239437 C25.4721404,3.14901408 25.3420351,3.52070423 25.3420351,4.01014085 C25.3420351,4.51042254 25.4411228,4.87112676 25.6478596,5.10676056 C25.8190877,5.2915493 26.1302456,5.34760563 26.4230175,5.34760563 L26.9225263,5.34760563 L28.4901053,1.67535211 L30.1566316,1.67535211 L32.0397193,6.09211268 L32.0397193,1.67535211 L33.733193,1.67535211 L35.6882807,4.92746479 L35.6882807,1.67535211 L36.8275088,1.67535211 L36.8275088,6.34478873 Z M0.0896842105,7.26197183 L1.99003509,7.26197183 L2.41852632,6.22478873 L3.37782456,6.22478873 L3.80519298,7.26197183 L7.5442807,7.26197183 L7.5442807,6.46901408 L7.87803509,7.26535211 L9.81908772,7.26535211 L10.1528421,6.4571831 L10.1528421,7.26197183 L19.445193,7.26197183 L19.4408421,5.55943662 L19.6206316,5.55943662 C19.7465263,5.56380282 19.7832982,5.57549296 19.7832982,5.78408451 L19.7832982,7.26197183 L24.5893333,7.26197183 L24.5893333,6.8656338 C24.9769825,7.07408451 25.5799298,7.26197183 26.3733333,7.26197183 L28.3952281,7.26197183 L28.8279298,6.22478873 L29.7872281,6.22478873 L30.210386,7.26197183 L34.1066667,7.26197183 L34.1066667,6.27676056 L34.6967018,7.26197183 L37.8189474,7.26197183 L37.8189474,0.749295775 L34.7289825,0.749295775 L34.7289825,1.5184507 L34.2962807,0.749295775 L31.125614,0.749295775 L31.125614,1.5184507 L30.7282807,0.749295775 L26.4454737,0.749295775 C25.7285614,0.749295775 25.098386,0.84971831 24.5893333,1.12957746 L24.5893333,0.749295775 L21.6338246,0.749295775 L21.6338246,1.12957746 C21.3098947,0.841126761 20.8684912,0.749295775 20.3776842,0.749295775 L9.58007018,0.749295775 L8.85557895,2.43140845 L8.11157895,0.749295775 L4.71059649,0.749295775 L4.71059649,1.5184507 L4.33698246,0.749295775 L1.43649123,0.749295775 L0.0895438596,3.84577465 L0.0895438596,7.26197183 L0.0896842105,7.26197183 Z" id="Shape"></path>
                                <path d="M39.6609123,10.706338 L37.6338246,10.706338 C37.4314386,10.706338 37.2969825,10.7139437 37.1837193,10.7907042 C37.066386,10.866338 37.021193,10.9785915 37.021193,11.1267606 C37.021193,11.3029577 37.1202807,11.4228169 37.2644211,11.4746479 C37.3817544,11.5156338 37.5077895,11.5276056 37.6930526,11.5276056 L38.2958596,11.5438028 C38.9041404,11.5588732 39.3101754,11.6638028 39.5577544,11.9197183 C39.602807,11.9553521 39.6298947,11.9953521 39.6609123,12.0353521 L39.6609123,10.706338 Z M39.6609123,13.7856338 C39.3907368,14.1821127 38.8642807,14.3830986 38.1515789,14.3830986 L36.0036491,14.3830986 L36.0036491,13.3815493 L38.1428772,13.3815493 C38.3550877,13.3815493 38.5035789,13.3535211 38.5929825,13.2659155 C38.6704561,13.193662 38.7244912,13.0887324 38.7244912,12.9612676 C38.7244912,12.8252113 38.6704561,12.7171831 38.5886316,12.6523944 C38.5079298,12.5811268 38.3904561,12.5487324 38.1967719,12.5487324 C37.1524211,12.5130986 35.8495439,12.5811268 35.8495439,11.1030986 C35.8495439,10.4256338 36.2781754,9.71253521 37.4453333,9.71253521 L39.6607719,9.71253521 L39.6609123,8.78323944 L37.602386,8.78323944 C36.981193,8.78323944 36.5299649,8.93253521 36.210386,9.16464789 L36.210386,8.78323944 L33.1657544,8.78323944 C32.6788772,8.78323944 32.1073684,8.9043662 31.8370526,9.16464789 L31.8370526,8.78323944 L26.4001404,8.78323944 L26.4001404,9.16464789 C25.9674386,8.85140845 25.2373333,8.78323944 24.9003509,8.78323944 L21.3141053,8.78323944 L21.3141053,9.16464789 C20.9717895,8.83197183 20.2105263,8.78323944 19.7465263,8.78323944 L15.7329123,8.78323944 L14.8144561,9.78070423 L13.9542456,8.78323944 L7.95873684,8.78323944 L7.95873684,15.3004225 L13.8414035,15.3004225 L14.7877895,14.2871831 L15.6792982,15.3004225 L19.3054035,15.303662 L19.3054035,13.7705634 L19.6618947,13.7705634 C20.1430175,13.7780282 20.7104561,13.7585915 21.2110877,13.5414085 L21.2110877,15.3002817 L24.2019649,15.3002817 L24.2019649,13.6016901 L24.3462456,13.6016901 C24.530386,13.6016901 24.5484912,13.6092958 24.5484912,13.7939437 L24.5484912,15.3001408 L33.6342456,15.3001408 C34.2110877,15.3001408 34.8140351,15.1519718 35.1479298,14.8830986 L35.1479298,15.3001408 L38.0298947,15.3001408 C38.629614,15.3001408 39.2152982,15.2157746 39.6609123,14.9997183 L39.6609123,13.7856338 Z M35.2242807,11.9197183 C35.4408421,12.1446479 35.5569123,12.4285915 35.5569123,12.9092958 C35.5569123,13.9140845 34.9313684,14.3830986 33.8096842,14.3830986 L31.6433684,14.3830986 L31.6433684,13.3815493 L33.8009825,13.3815493 C34.0119298,13.3815493 34.1615439,13.3535211 34.2552982,13.2659155 C34.3317895,13.193662 34.3866667,13.0887324 34.3866667,12.9612676 C34.3866667,12.8252113 34.3272982,12.7171831 34.2509474,12.6523944 C34.1658947,12.5811268 34.0485614,12.5487324 33.8548772,12.5487324 C32.8147368,12.5130986 31.5121404,12.5811268 31.5121404,11.1030986 C31.5121404,10.4256338 31.9362807,9.71253521 33.1023158,9.71253521 L35.3320702,9.71253521 L35.3320702,10.7066197 L33.2917895,10.7066197 C33.0895439,10.7066197 32.9580351,10.7142254 32.8461754,10.7909859 C32.7243509,10.8666197 32.6791579,10.9788732 32.6791579,11.1270423 C32.6791579,11.3032394 32.7825965,11.4230986 32.9225263,11.4749296 C33.0398596,11.5159155 33.1658947,11.5278873 33.3553684,11.5278873 L33.9541053,11.5440845 C34.5578947,11.5588732 34.9723509,11.663662 35.2242807,11.9197183 Z M25.1880702,11.6312676 C25.0392982,11.7198592 24.8552982,11.7274648 24.6388772,11.7274648 L23.2877193,11.7274648 L23.2877193,10.6784507 L24.6572632,10.6784507 C24.8552982,10.6784507 25.0534737,10.6826761 25.1880702,10.7628169 C25.3322105,10.8384507 25.418386,10.9830986 25.418386,11.1829577 C25.418386,11.3828169 25.3322105,11.5438028 25.1880702,11.6312676 Z M25.8597895,12.2125352 C26.1073684,12.3042254 26.3097544,12.4685915 26.4046316,12.6046479 C26.5616842,12.8326761 26.5844211,13.045493 26.5889123,13.4571831 L26.5889123,14.3830986 L25.4722807,14.3830986 L25.4722807,13.7987324 C25.4722807,13.5177465 25.4992281,13.1016901 25.2924912,12.884507 C25.1299649,12.7171831 24.8822456,12.6771831 24.4764912,12.6771831 L23.2878596,12.6771831 L23.2878596,14.3830986 L22.1702456,14.3830986 L22.1702456,9.71239437 L24.7381053,9.71239437 C25.301193,9.71239437 25.7112982,9.73732394 26.0763509,9.9328169 C26.4273684,10.1456338 26.6481404,10.4371831 26.6481404,10.97 C26.648,11.715493 26.1525614,12.0959155 25.8597895,12.2125352 Z M27.2648421,9.71239437 L30.9769825,9.71239437 L30.9769825,10.6783099 L28.3724912,10.6783099 L28.3724912,11.5274648 L30.9134035,11.5274648 L30.9134035,12.4804225 L28.3724912,12.4804225 L28.3724912,13.4097183 L30.9769825,13.4139437 L30.9769825,14.3830986 L27.2648421,14.3830986 L27.2648421,9.71239437 Z M19.7607018,11.8678873 L18.3233684,11.8678873 L18.3233684,10.6784507 L19.773614,10.6784507 C20.1751579,10.6784507 20.4538947,10.8426761 20.4538947,11.2511268 C20.4538947,11.6550704 20.1880702,11.8678873 19.7607018,11.8678873 Z M17.2155789,13.9583099 L15.5079298,12.0557746 L17.2155789,10.213662 L17.2155789,13.9583099 Z M12.805614,13.4097183 L10.0710175,13.4097183 L10.0710175,12.4804225 L12.5128421,12.4804225 L12.5128421,11.5274648 L10.0710175,11.5274648 L10.0710175,10.6783099 L12.8595088,10.6783099 L14.0760702,12.0394366 L12.805614,13.4097183 Z M21.648,11.2511268 C21.648,12.5485915 20.6833684,12.8164789 19.7111579,12.8164789 L18.3233684,12.8164789 L18.3233684,14.3830986 L16.1615439,14.3830986 L14.792,12.8369014 L13.3687018,14.3830986 L8.96308772,14.3830986 L8.96308772,9.71239437 L13.4364912,9.71239437 L14.8049123,11.2433803 L16.2196491,9.71239437 L19.773614,9.71239437 C20.6562807,9.71239437 21.648,9.95760563 21.648,11.2511268 Z" id="Shape"></path>
                            </g>
                        </g>
                    </g>
                </g>
            </g>
        </g>
    </g>
</svg>